# xmcd
#
# Track frame offsets: 
#        150
#        12055
#        24183
#        35627
#        47087
#        59233
#        71657
#        84415
#        96952
#        109064
#        119398
#        131250
#        143430
#        154614
#        165832
#        176870
#        188290
#        200295
#        210879
#        221953
#        233501
#        244196
#        255456
#        267380
#        279629
#        290440
#
# Disc length: 4044 seconds
#
# Revision: 1
# Processed by: cddbd v1.5.2PL0 Copyright (c) Steve Scherf et al.
# Submitted via: ExactAudioCopy v1.3
#
DISCID=660fca1a
DTITLE=Shelly Lee Alley - Shelly Lee Alley_Alley Cat Stomp 1937-1941
DYEAR=2006
DGENRE=Western Swing
TTITLE0=Save It For Me
TTITLE1=Marrymakers Stomp
TTITLE2=You've Got Me Worried Now
TTITLE3=Train Whistle Blues
TTITLE4=Women, Women, Women
TTITLE5=I'll Get It
TTITLE6=Nine Or Ten Times
TTITLE7=Deep Congress Avenue
TTITLE8=She's So Different
TTITLE9=Houston Blues
TTITLE10=You've Got It
TTITLE11=You know What I Mean
TTITLE12=Bring It On Home To Grandma
TTITLE13=She Just Wiggled Around
TTITLE14=She Wouldn't
TTITLE15=She Loves It So
TTITLE16=New Mean Mama Blues
TTITLE17=I'm So Used To You Know
TTITLE18=Can't Nobody Truck Like Me
TTITLE19=Alley Cat Stomp
TTITLE20=I've Got The Blues # 2
TTITLE21=Big House Blues
TTITLE22=Let's Do It Honey
TTITLE23=It Took My Breath Away
TTITLE24=Beer Joint Blues
TTITLE25=The Big House Blues
EXTD=
EXTT0=
EXTT1=
EXTT2=
EXTT3=
EXTT4=
EXTT5=
EXTT6=
EXTT7=
EXTT8=
EXTT9=
EXTT10=
EXTT11=
EXTT12=
EXTT13=
EXTT14=
EXTT15=
EXTT16=
EXTT17=
EXTT18=
EXTT19=
EXTT20=
EXTT21=
EXTT22=
EXTT23=
EXTT24=
EXTT25=
PLAYORDER=
